<?xml version="1.0" encoding="UTF-8"?>
<svg id="Layer_1" data-name="Layer 1" xmlns="http://www.w3.org/2000/svg" viewBox="0 0 961.05 385.63">
  <defs>
    <style>
      .cls-1 {
        fill: #231f20;
      }
    </style>
  </defs>
  <path class="cls-1" d="M313.16,108.39c21.03,1.64,40.37,12.47,51.25,30.67,19.27,32.24,7.47,73.82-27.79,87.73l46.97,72.41h-46.95l-37.54-62.11c-1.81-3-5.06-4.83-8.56-4.83h-14.83c-5.52,0-10,4.48-10,10v56.93h-40.96V118.39c0-5.52,4.48-10,10-10h78.41ZM265.7,197.3h47.45c1.24,0,9.44-3.87,10.98-5,14.78-10.75,11.77-40-5.93-43.01-8.5-1.45-14.3-.91-22-.9-10.17.02-20.35-.1-30.51-.04v48.95Z"/>
  <path class="cls-1" d="M473.29,105.69c76.94-2.4,116.64,83.08,83.3,147.23-34.93,67.19-132.78,64.38-163.19-4.98-27.1-61.82,7.99-140,79.89-142.24ZM470.3,146.64c-64.78,6.87-59.24,119.35,9.68,114.58,67.85-4.69,62.34-122.21-9.68-114.58Z"/>
  <path class="cls-1" d="M669.14,105.63c114.7-2.44,126.28,171.72,23.99,193.91-135.09,29.3-153.74-191.15-23.99-193.91ZM667.09,146.63c-67.09,7.39-58.78,119.81,8.7,114.59,67.18-5.19,61.19-122.29-8.7-114.59Z"/>
  <path class="cls-1" d="M95.87,299.2h-36.96v-60.44c0-3.92,5.22-15.76,7.58-19.39,17.78-27.44,56.79-14.7,83.57-18.33,26.49-3.59,32.77-40.85,8.44-50.88-8.83-3.64-46.03-4.22-56.18-2.86-1.54.21-6.44,3.16-6.44,4.55v38.46h-36.96v-69.43c0-4.05,7.17-11.11,11.55-11.42,45.38,4.26,102.75-15.88,131.94,29.78,19.85,31.05,9.83,73.08-22.59,90.56-24.83,13.39-49.47,4.53-75.44,7.48-2.75.31-8.49,2.28-8.49,5.49v56.44Z"/>
  <path class="cls-1" d="M904.08,108.39v39.96h-75.92c-5.52,0-10,4.48-10,10v16.96c0,5.52,4.48,10,10,10h66.92v39.96h-66.92c-5.52,0-10,4.48-10,10v63.93h-40.96V118.39c0-5.52,4.48-10,10-10h116.88Z"/>
</svg>